<svg xmlns="http://www.w3.org/2000/svg" viewBox="0 0 300 300" id="adidas">
  <path fill="#ffffff" fill-rule="evenodd" d="M0 0h300v300H0Z" class="colorffffff svgShape"></path>
  <path fill="#000000" fill-rule="evenodd" d="M282.007 187.767a7.372 7.372 0 0 0 3.766 1.007h.042a7.375 7.375 0 0 0 3.77-1.007 6.682 6.682 0 0 0 2.806-2.8 7.5 7.5 0 0 0 1.005-3.768 7.6 7.6 0 0 0-1.005-3.857 6.8 6.8 0 0 0-2.848-2.8 7.8 7.8 0 0 0-3.728-1.005h-.042a8.336 8.336 0 0 0-3.724.996 7.046 7.046 0 0 0-2.848 2.8 7.59 7.59 0 0 0-1.005 3.857 7.509 7.509 0 0 0 1.005 3.768 6.664 6.664 0 0 0 2.806 2.8Zm-1.707-9.771a6.132 6.132 0 0 1 2.366-2.367 6.733 6.733 0 0 1 3.11-.831h.042a6.755 6.755 0 0 1 3.113.831 6.152 6.152 0 0 1 2.366 2.367 6.472 6.472 0 0 1 0 6.352 5.906 5.906 0 0 1-2.322 2.322 6.288 6.288 0 0 1-3.155.833h-.042a6.3 6.3 0 0 1-3.155-.833 5.919 5.919 0 0 1-2.319-2.322 6.193 6.193 0 0 1 0-6.352Z" class="color1e71b8 svgShape"></path>
  <path fill="#000000" fill-rule="evenodd" d="M283.757 181.893h.788a1.444 1.444 0 0 1 1.052.307.6.6 0 0 1 .176.131 7.694 7.694 0 0 1 1.228 1.754l.746 1.314h1.578l-.963-1.62a10.875 10.875 0 0 0-1.228-1.622 2.156 2.156 0 0 0-.7-.437 2.564 2.564 0 0 0 1.709-.745 2.152 2.152 0 0 0 .66-1.578 1.933 1.933 0 0 0-.4-1.183 1.894 1.894 0 0 0-1.052-.789 4.67 4.67 0 0 0-1.578-.219c-.131 0-.307-.044-.481-.044h-2.848v8.231h1.314v-3.5Zm0-3.594h2.02a6.941 6.941 0 0 1 .833.132.968.968 0 0 1 .568.437 1.062 1.062 0 0 1 .176.658 1.094 1.094 0 0 1-.4.875 1.9 1.9 0 0 1-1.183.352h-2.016v-2.454Zm-196.76.921h11.83l-11.83-19.716-9.99-16.6-42.453 25.5 6.484 10.821h45.96Zm110.056 0h57.79l-35.972-59.934-39.78-66.155-16.387 9.862-26.027 15.636 26.024 43.331Zm-20.2 19.76a25.728 25.728 0 0 0-14.023-4.162h-.131a26.025 26.025 0 0 0 0 52.05h.131a25.715 25.715 0 0 0 14.023-4.162v2.716h11.964v-66.2h-11.959Zm0 24.58a14.369 14.369 0 0 1-14.023 11.609h-.131a14.305 14.305 0 0 1 0-28.609h.131a14.334 14.334 0 0 1 14.023 11.567Zm56.166-24.58a25.6 25.6 0 0 0-14.02-4.162h-.134a26.025 26.025 0 0 0 0 52.05h.134a25.591 25.591 0 0 0 14.02-4.162v2.716h11.968v-49.29h-11.963v2.848Zm0 24.58a14.368 14.368 0 0 1-14.02 11.609h-.134a14.305 14.305 0 0 1 0-28.609h.134a14.334 14.334 0 0 1 14.02 11.567Zm54.5-5.959c-.437-.221-1.052-.439-1.754-.7a126.524 126.524 0 0 0-13.056-3.373c-5.3-1.184-7.973-2.716-7.973-4.644a4.079 4.079 0 0 1 1.4-3.242q1.842-1.578 6.573-1.578c3.2 0 5.52.7 6.879 2.059a8.544 8.544 0 0 1 1.84 4.425h12.706c0-6.221-2.542-10.689-7.536-13.405a4.965 4.965 0 0 0-.833-.437c-3.463-1.622-8.062-2.454-13.8-2.454-6.968 0-12.224 1.841-15.727 5.564a15.292 15.292 0 0 0-4.162 10.909c0 5.348 2.627 9.2 7.973 11.7 2.016.963 6.921 2.322 14.722 3.987 5.214 1.139 7.839 2.761 7.839 4.82a4.1 4.1 0 0 1-1.662 3.242q-2.171 1.84-6.573 1.841c-3.9 0-6.66-.657-8.28-1.927a6.293 6.293 0 0 1-2.456-5.3H250.33c0 6.046 2.542 10.558 7.667 13.536 4.076 2.322 9.421 3.507 16.038 3.507a29.723 29.723 0 0 0 11.74-2.19c.7-.307 1.317-.615 1.973-.965 5.214-2.89 7.843-7.491 7.843-13.8-.002-5.177-2.678-9.034-8.064-11.574ZM44.456 198.982a25.859 25.859 0 0 0-14.063-4.162h-.132a26.025 26.025 0 0 0 0 52.05h.132a25.846 25.846 0 0 0 14.063-4.162v2.716h11.961v-49.29H44.456v2.848Zm0 24.58a14.379 14.379 0 0 1-14.063 11.609h-.132a14.305 14.305 0 0 1 0-28.609h.132a14.343 14.343 0 0 1 14.063 11.567Zm74.656-32.64h13.013v-11.437h-13.013Zm0 54.5h13.013v-50.6h-13.013Zm-17.919-46.44a25.861 25.861 0 0 0-14.065-4.162h-.131a26.025 26.025 0 0 0 0 52.05h.131a25.851 25.851 0 0 0 14.064-4.161v2.715h11.961v-66.2h-11.96v19.758Zm0 24.58a14.38 14.38 0 0 1-14.065 11.609h-.131a14.305 14.305 0 0 1 0-28.609h.131a14.346 14.346 0 0 1 14.065 11.567v5.433Zm75.618-44.339-14.107-23.57-34.654-57.66-41.052 24.712-1.4.831 1.4 2.322 32.069 53.363h57.744Z" class="color1e71b8 svgShape"></path>
</svg>
